<svg width="13" height="14" viewBox="0 0 13 14" fill="none" xmlns="http://www.w3.org/2000/svg">
<path d="M1.08301 10.7913C1.08301 11.7122 1.78717 12.4163 2.70801 12.4163H10.2913C11.2122 12.4163 11.9163 11.7122 11.9163 10.7913V6.45801H1.08301V10.7913ZM10.2913 2.66634H9.20801V2.12467C9.20801 1.79967 8.99134 1.58301 8.66634 1.58301C8.34134 1.58301 8.12467 1.79967 8.12467 2.12467V2.66634H4.87467V2.12467C4.87467 1.79967 4.65801 1.58301 4.33301 1.58301C4.00801 1.58301 3.79134 1.79967 3.79134 2.12467V2.66634H2.70801C1.78717 2.66634 1.08301 3.37051 1.08301 4.29134V5.37467H11.9163V4.29134C11.9163 3.37051 11.2122 2.66634 10.2913 2.66634Z" fill="#1B46DF"/>
</svg>
