<svg width="24" height="24" viewBox="0 0 24 24" fill="none" xmlns="http://www.w3.org/2000/svg">
<path d="M13.1479 20.085C13.3894 20.0935 13.6277 20.1372 13.8552 20.2143C13.4943 20.658 12.9609 20.9367 12.3801 20.9763L12.3548 20.9781L12.3297 20.9811C11.6313 21.0643 10.9288 20.8708 10.3743 20.4439L10.3525 20.4271L10.3298 20.4115C10.2574 20.3619 10.1976 20.299 10.1525 20.2274C10.1601 20.2255 10.1679 20.2236 10.1759 20.2217C10.6086 20.1312 11.0495 20.0854 11.4917 20.085H13.1479ZM17.7137 9.59946L17.7185 9.65917L17.7303 9.71789C17.936 10.7383 18.4031 11.6876 19.0852 12.4744C19.3284 12.854 19.471 13.2882 19.4999 13.7367V13.9115H19.4999L19.5 13.9176C19.5039 14.555 19.2778 15.1733 18.8617 15.6604C18.2904 16.2644 17.518 16.6449 16.6852 16.7302L16.6725 16.7315L16.6599 16.7331C13.5578 17.1312 10.417 17.1312 7.31497 16.7331L7.29793 16.7309L7.28083 16.7293C6.44189 16.6509 5.66169 16.2728 5.0842 15.6675C4.68805 15.18 4.4815 14.5682 4.5013 13.9432L4.50181 13.9274V13.9115V13.7358C4.52976 13.2873 4.66777 12.8522 4.90397 12.4684C5.58363 11.6849 6.0537 10.7424 6.26923 9.72811L6.28277 9.6644L6.28793 9.59946C6.31793 9.2219 6.31792 8.84836 6.31791 8.51912L6.31791 8.50245C6.31791 8.1607 6.31842 7.86415 6.34062 7.57648C6.62282 4.95467 9.21645 3 11.9472 3H12.0366C14.7416 3 17.3879 4.96307 17.661 7.5756C17.6832 7.85878 17.6838 8.15507 17.6838 8.49911V8.51595C17.6837 8.84614 17.6837 9.22189 17.7137 9.59946Z" stroke="#A8BBFF" stroke-width="2"/>
</svg>
