<svg width="22" height="22" viewBox="0 0 22 22" fill="none" xmlns="http://www.w3.org/2000/svg">
<path d="M10.5202 5.24039V8.12039C10.5202 8.65059 10.95 9.08039 11.4802 9.08039H14.3602M16.2802 1.40039H9.55996C8.49958 1.40039 7.63997 2.26 7.63996 3.32038V5.24039M16.2802 1.40039H16.8157C17.0861 1.40039 17.3434 1.51426 17.5297 1.71021C17.8096 2.00469 18.2529 2.4581 18.6802 2.84039C19.015 3.14 19.5411 3.67771 19.8562 4.0045C20.0265 4.18122 20.1202 4.41719 20.1202 4.66266L20.1202 5.24039M16.2802 1.40039V4.28039C16.2802 4.81058 16.71 5.24039 17.2402 5.24039H20.1202M20.1202 5.24039L20.1199 14.8404C20.1199 15.9008 19.2603 16.7604 18.1999 16.7604H14.3599M12.9202 6.68039C12.4929 6.2981 12.0496 5.84469 11.7697 5.55021C11.5834 5.35426 11.3261 5.24039 11.0557 5.24039H3.79996C2.73958 5.24039 1.87996 6.1 1.87996 7.16038L1.87988 18.6803C1.87988 19.7407 2.73949 20.6003 3.79988 20.6004L12.4399 20.6004C13.5003 20.6004 14.3599 19.7408 14.3599 18.6804L14.3602 8.50266C14.3602 8.25719 14.2665 8.02122 14.0962 7.8445C13.7811 7.51771 13.255 6.98001 12.9202 6.68039Z" stroke="#A8BBFF" stroke-width="2" stroke-linecap="round" stroke-linejoin="round"/>
</svg>
