<svg width="24" height="25" viewBox="0 0 24 25" fill="none" xmlns="http://www.w3.org/2000/svg">
<path d="M9.70121 7.20994L10.9912 5.90994V17.4999C10.9912 17.7652 11.0966 18.0195 11.2841 18.207C11.4716 18.3946 11.726 18.4999 11.9912 18.4999C12.2564 18.4999 12.5108 18.3946 12.6983 18.207C12.8859 18.0195 12.9912 17.7652 12.9912 17.4999V5.90994L14.2812 7.20994C14.3742 7.30367 14.4848 7.37806 14.6066 7.42883C14.7285 7.4796 14.8592 7.50574 14.9912 7.50574C15.1232 7.50574 15.2539 7.4796 15.3758 7.42883C15.4976 7.37806 15.6082 7.30367 15.7012 7.20994C15.7949 7.11698 15.8693 7.00637 15.9201 6.88452C15.9709 6.76266 15.997 6.63195 15.997 6.49994C15.997 6.36793 15.9709 6.23722 15.9201 6.11536C15.8693 5.9935 15.7949 5.8829 15.7012 5.78994L12.7012 2.78994C12.6082 2.69621 12.4976 2.62182 12.3758 2.57105C12.2539 2.52028 12.1232 2.49414 11.9912 2.49414C11.8592 2.49414 11.7285 2.52028 11.6066 2.57105C11.4848 2.62182 11.3742 2.69621 11.2812 2.78994L8.28121 5.78994C8.09291 5.97824 7.98712 6.23364 7.98712 6.49994C7.98712 6.76624 8.09291 7.02164 8.28121 7.20994C8.46951 7.39824 8.72491 7.50403 8.99121 7.50403C9.25751 7.50403 9.51291 7.39824 9.70121 7.20994ZM17.9912 9.49994H15.9912C15.726 9.49994 15.4716 9.6053 15.2841 9.79283C15.0966 9.98037 14.9912 10.2347 14.9912 10.4999C14.9912 10.7652 15.0966 11.0195 15.2841 11.207C15.4716 11.3946 15.726 11.4999 15.9912 11.4999H17.9912C18.2564 11.4999 18.5108 11.6053 18.6983 11.7928C18.8859 11.9804 18.9912 12.2347 18.9912 12.4999V19.4999C18.9912 19.7652 18.8859 20.0195 18.6983 20.207C18.5108 20.3946 18.2564 20.4999 17.9912 20.4999H5.99121C5.72599 20.4999 5.47164 20.3946 5.2841 20.207C5.09657 20.0195 4.99121 19.7652 4.99121 19.4999V12.4999C4.99121 12.2347 5.09657 11.9804 5.2841 11.7928C5.47164 11.6053 5.72599 11.4999 5.99121 11.4999H7.99121C8.25643 11.4999 8.51078 11.3946 8.69832 11.207C8.88585 11.0195 8.99121 10.7652 8.99121 10.4999C8.99121 10.2347 8.88585 9.98037 8.69832 9.79283C8.51078 9.6053 8.25643 9.49994 7.99121 9.49994H5.99121C5.19556 9.49994 4.4325 9.81601 3.86989 10.3786C3.30728 10.9412 2.99121 11.7043 2.99121 12.4999V19.4999C2.99121 20.2956 3.30728 21.0587 3.86989 21.6213C4.4325 22.1839 5.19556 22.4999 5.99121 22.4999H17.9912C18.7869 22.4999 19.5499 22.1839 20.1125 21.6213C20.6751 21.0587 20.9912 20.2956 20.9912 19.4999V12.4999C20.9912 11.7043 20.6751 10.9412 20.1125 10.3786C19.5499 9.81601 18.7869 9.49994 17.9912 9.49994Z" fill="white"/>
</svg>
